<?xml version="1.0" encoding="utf-8"?>
<!-- Generator: Adobe Illustrator 17.0.0, SVG Export Plug-In . SVG Version: 6.00 Build 0)  -->
<!DOCTYPE svg PUBLIC "-//W3C//DTD SVG 1.1//EN" "http://www.w3.org/Graphics/SVG/1.1/DTD/svg11.dtd">
<svg version="1.1" id="图层_1" xmlns="http://www.w3.org/2000/svg" xmlns:xlink="http://www.w3.org/1999/xlink" x="0px" y="0px"
	 width="960px" height="200px" viewBox="0 0 960 200" enable-background="new 0 0 960 200" xml:space="preserve">
<path fill="none" stroke="#306EFF" stroke-miterlimit="10" d="M1,125.161c0,0,270.109-2.742,318.401,0.343
	c48.291,3.085,73.345,6.512,100.764-3.085s42.499-30.161,42.499-30.161h-22.62c0,0-1.714-12.338,4.798-16.451
	c6.512-4.113,13.252-6.398,15.08-18.508c2.285-6.398-0.228-24.448,4.798-32.217c5.027-7.769,6.169-18.508,16.451-18.508
	s11.653,9.368,15.766,16.451s4.57,26.733,4.798,33.588c0.457,13.709,16.794,16.794,19.193,22.62s1.371,13.024,1.371,13.024h-39.072
	V53.872c0,0,8.226-3.427,8.226-10.282s-4.113-10.282-10.282-10.282s-10.282,4.113-10.282,10.282s8.226,10.282,8.226,10.282v38.386
	h-11.653l0.026,10.167l5.303,1.169l6.324,31.849h3.427l6.855-31.532l4.798-1.371V95c7.266,1.508,15.217,7.266,27.419,13.024
	c12.201,5.758,25.386,13.024,58.265,19.193s74.716-2.056,102.82-2.742S961,123.79,961,123.79"/>
</svg>
