<?xml version="1.0" encoding="utf-8"?>
<!-- Generator: Adobe Illustrator 17.0.0, SVG Export Plug-In . SVG Version: 6.00 Build 0)  -->
<!DOCTYPE svg PUBLIC "-//W3C//DTD SVG 1.1//EN" "http://www.w3.org/Graphics/SVG/1.1/DTD/svg11.dtd">
<svg version="1.1" id="图层_1" xmlns="http://www.w3.org/2000/svg" xmlns:xlink="http://www.w3.org/1999/xlink" x="0px" y="0px"
	 width="960px" height="200px" viewBox="0 0 960 200" enable-background="new 0 0 960 200" xml:space="preserve">
<path fill="none" stroke="#306EFF" stroke-miterlimit="10" d="M1,119.376c0,0,166.226-8.568,208.04-7.197
	s161.085,19.536,188.504,9.939c42.728-14.955,17.478-38.169,30.846-46.612c6.512-4.113,19.422-3.656,21.25-15.766
	c2.285-6.398-0.228-10.054,4.798-17.822c5.027-7.769,17.137-17.137,27.419-17.137s21.935,10.054,26.048,17.137
	c4.113,7.083,4.57,6.855,4.798,13.709c0.457,13.709,16.794,16.794,19.193,22.62c2.399,5.826,1.371,13.024,1.371,13.024
	l-49.354-0.685v-7.54h-5.484v8.911l0.685,23.991h3.427l17.822-12.338c0,0,5.772-6.426,28.104,4.113
	c12.201,5.758,73.369,13.024,106.248,19.193c32.879,6.169,115.844-4.798,164.513-6.855c48.67-2.056,161.772,0.686,161.772,0.686"/>
</svg>
