<?xml version="1.0" encoding="utf-8"?>
<!-- Generator: Adobe Illustrator 17.0.0, SVG Export Plug-In . SVG Version: 6.00 Build 0)  -->
<!DOCTYPE svg PUBLIC "-//W3C//DTD SVG 1.1//EN" "http://www.w3.org/Graphics/SVG/1.1/DTD/svg11.dtd">
<svg version="1.1" id="图层_1" xmlns="http://www.w3.org/2000/svg" xmlns:xlink="http://www.w3.org/1999/xlink" x="0px" y="0px"
	 width="960px" height="200px" viewBox="0 0 960 200" enable-background="new 0 0 960 200" xml:space="preserve">
<path fill="none" stroke="#306EFF" stroke-miterlimit="10" d="M0,121.921c0,0,198.135-6.169,246.426-3.085
	s136.408,12.681,163.827,3.085c27.419-9.597,41.128-30.161,41.128-30.161h-21.935c0,0-1.714-12.338,4.798-16.451
	s19.422-3.656,21.25-15.766c2.285-6.398-0.228-16.908,4.798-24.677c5.027-7.769,10.282-17.137,20.564-17.137
	s15.08,10.054,19.193,17.137s4.57,13.709,4.798,20.564c0.457,13.709,16.794,16.794,19.193,22.62
	c2.399,5.826,1.371,13.024,1.371,13.024l-42.499-0.685V75.994c0,0,8.226-3.427,8.226-10.282s-5.484-10.282-11.653-10.282
	c-6.169,0-10.282,4.798-10.282,10.968s8.226,9.597,8.226,9.597V91.76h-16.451l1.397,10.167l5.303,1.169l10.436,12.656h3.427
	l10.967-12.338l4.798-1.371v-7.54c7.266,1.508,11.105,7.266,23.306,13.024c12.201,5.758,39.095,13.024,71.974,19.193
	c32.879,6.169,136.408-3.427,164.513-4.113S960,121.921,960,121.921"/>
</svg>
