<?xml version="1.0" encoding="utf-8"?>
<!-- Generator: Adobe Illustrator 17.0.0, SVG Export Plug-In . SVG Version: 6.00 Build 0)  -->
<!DOCTYPE svg PUBLIC "-//W3C//DTD SVG 1.1//EN" "http://www.w3.org/Graphics/SVG/1.1/DTD/svg11.dtd">
<svg version="1.1" id="图层_1" xmlns="http://www.w3.org/2000/svg" xmlns:xlink="http://www.w3.org/1999/xlink" x="0px" y="0px"
	 width="960px" height="200px" viewBox="0 0 960 200" enable-background="new 0 0 960 200" xml:space="preserve">
<path fill-rule="evenodd" clip-rule="evenodd" fill="none" stroke="#2A83FF" stroke-miterlimit="10" d="M1,125.652
	c0,0,270.109-2.742,318.4,0.343c48.291,3.085,73.345,6.512,100.764-3.085c27.419-9.597,42.499-30.161,42.499-30.161h-22.62
	c0,0-1.714-12.338,4.798-16.451c6.512-4.113,11.567-6.398,13.395-18.508c2.285-6.398-0.228-24.448,4.798-32.217
	c5.027-7.769,7.855-21.508,18.137-21.508s13.338,12.368,17.451,19.451c4.113,7.083,4.57,26.733,4.798,33.588
	c0.457,13.709,15.109,16.794,17.508,22.62c2.399,5.826,1.371,13.024,1.371,13.024h-39.072V54.363c0,0,8.226-3.427,8.226-10.282
	s-4.113-10.282-10.282-10.282s-10.282,4.113-10.282,10.282s8.226,10.282,8.226,10.282V92.75h-11.653l0.026,10.167l5.303,1.169
	l6.324,31.849h3.427l6.855-31.532l4.798-1.371v-7.54c7.266,1.508,15.217,7.266,27.419,13.024
	c12.201,5.758,25.386,13.024,58.265,19.193c32.879,6.169,74.716-2.056,102.82-2.742C710.804,124.281,961,124.281,961,124.281"/>
</svg>
